<svg width="54" height="55" viewBox="0 0 54 55" fill="none" xmlns="http://www.w3.org/2000/svg">
<g style="mix-blend-mode:multiply">
<path d="M16.875 19.1289V18.8125C16.875 18.918 16.7695 19.0234 16.7695 19.1289C16.7695 19.1289 16.7695 19.1289 16.875 19.1289ZM53.6836 29.2539C51.4688 24.2969 48.5156 13.3281 45.9844 9.63672C42.293 4.46875 34.2773 0.25 28.0547 0.25H20.25C9.07031 0.25 0 9.32031 0 20.5V20.6055C0 25.5625 2.95312 32.3125 6.75 35.582V54.25H33.75V47.5H40.5C44.1914 47.5 47.25 44.5469 47.25 40.75V34H50.625C52.418 34 53.8945 32.5234 53.8945 30.625C53.8945 30.3086 53.7891 29.6758 53.6836 29.2539ZM35.4375 22.1875H30.0586C30.1641 22.7148 30.2695 23.4531 30.375 23.875C30.375 26.7227 28.0547 28.9375 25.3125 28.9375C24.7852 28.9375 24.0469 28.832 23.625 28.7266V34H16.875V28.7266C16.3477 28.832 15.6094 28.9375 15.1875 28.9375C12.3398 28.9375 10.125 26.7227 10.125 23.875C10.125 23.7695 10.125 23.7695 10.125 23.6641C8.22656 23.0312 6.75 20.8164 6.75 18.8125C6.75 16.0703 8.96484 13.75 11.707 13.75H11.8125C11.8125 11.0078 14.0273 8.6875 16.875 8.6875C17.5078 8.79297 18.668 9.00391 19.3008 9.42578C20.1445 8.16016 22.043 7.10547 23.625 7.10547C25.1016 7.10547 27 8.16016 27.8438 9.42578C28.4766 9.00391 29.6367 8.6875 30.375 8.6875C32.2734 8.6875 34.4883 10.2695 35.1211 12.0625H35.4375C38.1797 12.0625 40.5 14.3828 40.5 17.125C40.5 19.9727 38.1797 22.1875 35.4375 22.1875Z" fill="#1FC63A"/>
</g>
</svg>
