<svg xmlns="http://www.w3.org/2000/svg" width="68" height="48" fill="none" viewBox="0 0 68 48"><g style="mix-blend-mode:multiply"><path fill="#81B73B" d="M10.125 20.5C13.8164 20.5 16.875 17.5469 16.875 13.75C16.875 10.0586 13.8164 7 10.125 7C6.32812 7 3.375 10.0586 3.375 13.75C3.375 17.5469 6.32812 20.5 10.125 20.5ZM57.375 20.5C61.0664 20.5 64.125 17.5469 64.125 13.75C64.125 10.0586 61.0664 7 57.375 7C53.5781 7 50.625 10.0586 50.625 13.75C50.625 17.5469 53.5781 20.5 57.375 20.5ZM60.75 23.875H54C52.1016 23.875 50.4141 24.7188 49.1484 25.8789C53.4727 28.1992 56.4258 32.418 57.1641 37.375H64.125C65.918 37.375 67.5 35.8984 67.5 34V30.625C67.5 26.9336 64.4414 23.875 60.75 23.875ZM33.75 23.875C40.1836 23.875 45.5625 18.6016 45.5625 12.0625C45.5625 5.62891 40.1836 0.25 33.75 0.25C27.2109 0.25 21.9375 5.62891 21.9375 12.0625C21.9375 18.6016 27.2109 23.875 33.75 23.875ZM41.7656 27.25H40.9219C38.707 28.3047 36.2812 28.9375 33.75 28.9375C31.1133 28.9375 28.6875 28.3047 26.4727 27.25H25.6289C18.8789 27.25 13.5 32.7344 13.5 39.4844V42.4375C13.5 45.2852 15.7148 47.5 18.5625 47.5H48.9375C51.6797 47.5 54 45.2852 54 42.4375V39.4844C54 32.7344 48.5156 27.25 41.7656 27.25ZM18.2461 25.8789C16.9805 24.7188 15.293 23.875 13.5 23.875H6.75C2.95312 23.875 0 26.9336 0 30.625V34C0 35.8984 1.47656 37.375 3.375 37.375H10.2305C10.9688 32.418 13.9219 28.1992 18.2461 25.8789Z"/></g></svg>