<svg xmlns="http://www.w3.org/2000/svg" width="80" height="66" fill="none" viewBox="0 0 80 66"><g style="mix-blend-mode:multiply"><path fill="#1FC63A" d="M65.8125 59H57.375V23.7735C57.375 20.9258 55.0547 18.5 52.3125 18.5H40.5V25.25H50.625V65.75H65.8125C66.6562 65.75 67.5 65.0118 67.5 64.0625V60.6875C67.5 59.8438 66.6562 59 65.8125 59ZM32.9062 11.961L12.6562 17.1289C11.0742 17.5508 10.125 18.9219 10.125 20.5039V59H1.6875C0.738281 59 0 59.8438 0 60.6875V64.0625C0 65.0118 0.738281 65.75 1.6875 65.75H37.125V15.336C37.125 13.0157 35.0156 11.3282 32.9062 11.961ZM27.8438 42.125C26.3672 42.125 25.3125 40.6485 25.3125 38.75C25.3125 36.9571 26.3672 35.375 27.8438 35.375C29.2148 35.375 30.375 36.9571 30.375 38.75C30.375 40.6485 29.2148 42.125 27.8438 42.125Z"/></g><g style="mix-blend-mode:multiply"><path fill="#1FC63A" d="M70.9375 4.875L73.75 6L74.875 8.8125C74.9688 8.95312 75.1094 9.04688 75.25 9.04688C75.3438 9.04688 75.4844 8.95312 75.5781 8.8125L76.75 6L79.5156 4.875C79.6562 4.78125 79.75 4.64062 79.75 4.5C79.75 4.40625 79.6562 4.26562 79.5156 4.17188L76.75 3L75.5781 0.234375C75.4844 0.09375 75.3438 0 75.25 0C75.1094 0 74.9688 0.09375 74.875 0.234375L73.75 3L70.9375 4.17188C70.7969 4.26562 70.7031 4.40625 70.7031 4.5C70.7031 4.64062 70.7969 4.78125 70.9375 4.875ZM79.5156 19.1719L76.75 18L75.5781 15.2344C75.4844 15.0938 75.3438 15 75.25 15C75.1094 15 74.9688 15.0938 74.875 15.2344L73.75 18L70.9375 19.1719C70.7969 19.2656 70.7031 19.4062 70.7031 19.5C70.7031 19.6406 70.7969 19.7812 70.9375 19.875L73.75 21L74.875 23.8125C74.9688 23.9531 75.1094 24.0469 75.25 24.0469C75.3438 24.0469 75.4844 23.9531 75.5781 23.8125L76.75 21L79.5156 19.875C79.6562 19.7812 79.75 19.6406 79.75 19.5C79.75 19.4062 79.6562 19.2656 79.5156 19.1719ZM73.75 12C73.7031 11.7656 73.5625 11.4375 73.3281 11.3438L68.0312 8.67188L65.4062 3.42188C65.125 2.90625 64.3281 2.90625 64.0469 3.42188L61.4219 8.67188L56.125 11.3438C55.8906 11.4375 55.7031 11.7656 55.7031 12C55.7031 12.2812 55.8906 12.5625 56.125 12.6562L61.4219 15.3281L64.0469 20.625C64.1875 20.8594 64.4688 21 64.75 21C64.9844 21 65.2656 20.8594 65.4062 20.625L68.0312 15.3281L73.3281 12.6562C73.5625 12.5625 73.75 12.2812 73.75 12Z"/></g></svg>