<svg width="54" height="54" viewBox="0 0 54 54" fill="none" xmlns="http://www.w3.org/2000/svg">
<g style="mix-blend-mode:multiply">
<path d="M40.5 47.25H34.4883V25.207L37.8633 29.2148C38.3906 29.8477 39.5508 30.375 40.5 30.375C42.293 30.375 43.7695 28.8984 43.7695 27C43.7695 26.3672 43.4531 25.418 43.0312 24.8906L35.6484 16.0312C34.4883 14.6602 32.168 13.5 30.4805 13.5H23.4141C21.7266 13.5 19.4062 14.6602 18.2461 16.0312L10.8633 24.8906C10.4414 25.418 10.0195 26.3672 10.0195 27C10.0195 28.8984 11.6016 30.375 13.3945 30.375C14.3438 30.375 15.5039 29.8477 16.0312 29.2148L19.3008 25.207V47.25H13.3945C11.6016 47.25 10.0195 48.832 10.0195 50.625V54H43.875V50.625C43.875 48.832 42.293 47.25 40.5 47.25ZM27.7383 47.25H26.0508V33.75H27.7383V47.25ZM26.8945 10.125C29.7422 10.125 31.957 7.91016 31.957 5.0625C31.957 2.32031 29.7422 0 26.8945 0V0.105469V0C24.1523 0 21.832 2.32031 21.832 5.0625C21.832 7.91016 24.1523 10.125 26.8945 10.125ZM53.6836 4.74609L50.625 3.48047L49.2539 0.316406C49.1484 0.210938 49.043 0.105469 48.9375 0.105469C48.7266 0.105469 48.6211 0.210938 48.5156 0.316406L47.25 3.48047L44.0859 4.74609C43.9805 4.85156 43.875 4.95703 43.875 5.16797C43.875 5.27344 43.9805 5.37891 44.0859 5.48438L47.25 6.85547L48.5156 9.91406C48.6211 10.125 48.7266 10.2305 48.9375 10.2305C49.043 10.2305 49.1484 10.125 49.2539 9.91406L50.625 6.85547L53.6836 5.48438C53.8945 5.37891 54 5.27344 54 5.16797C54 4.95703 53.8945 4.85156 53.6836 4.74609ZM6.64453 10.125L5.37891 7.06641C5.27344 6.85547 5.16797 6.75 4.95703 6.75C4.85156 6.75 4.74609 6.85547 4.64062 7.06641L3.26953 10.125L0.210938 11.4961C0 11.6016 0 11.707 0 11.8125C0 12.0234 0 12.1289 0.210938 12.2344L3.26953 13.5L4.64062 16.6641C4.74609 16.875 4.85156 16.875 4.95703 16.875C5.16797 16.875 5.27344 16.875 5.37891 16.6641L6.64453 13.5L9.80859 12.2344C9.91406 12.1289 10.0195 12.0234 10.0195 11.8125C10.0195 11.707 9.91406 11.6016 9.80859 11.4961L6.64453 10.125Z" fill="#81B73B"/>
</g>
</svg>
