<svg xmlns="http://www.w3.org/2000/svg" width="39" height="36" fill="none" viewBox="0 0 39 36"><g style="mix-blend-mode:multiply"><path fill="#81B73B" d="M13.2529 0C6.2959 0 0.65918 5.63672 0.65918 12.5938C0.65918 19.5508 6.2959 25.1875 13.2529 25.1875C20.21 25.1875 25.8467 19.5508 25.8467 12.5938C25.8467 5.63672 20.21 0 13.2529 0ZM6.34668 10.9688C6.49902 8.83594 7.97168 7.3125 9.19043 7.3125C10.3584 7.3125 11.8311 8.83594 12.0342 10.9688C12.0342 11.375 11.4756 11.5781 11.2725 11.1719L10.7646 10.3086C10.3584 9.64844 9.7998 9.24219 9.19043 9.24219C8.53027 9.24219 7.97168 9.64844 7.56543 10.3086L7.1084 11.1719C6.85449 11.5781 6.2959 11.375 6.34668 10.9688ZM19.042 17.2148C17.6201 18.9414 15.4873 19.9062 13.2529 19.9062C10.9678 19.9062 8.83496 18.9414 7.41309 17.2148C6.70215 16.3516 7.97168 15.3359 8.63184 16.1484C9.7998 17.5195 11.4756 18.2812 13.2529 18.2812C15.0303 18.2812 16.6553 17.5195 17.8232 16.1484C18.4834 15.3359 19.7529 16.3516 19.042 17.2148ZM19.3975 11.1719L18.8896 10.3086C18.4834 9.64844 17.9248 9.24219 17.3154 9.24219C16.6553 9.24219 16.0967 9.64844 15.6904 10.3086L15.2334 11.1719C14.9795 11.5781 14.4209 11.375 14.4717 10.9688C14.624 8.83594 16.0967 7.3125 17.3154 7.3125C18.4834 7.3125 19.9561 8.83594 20.1592 10.9688C20.1592 11.375 19.6006 11.5781 19.3975 11.1719Z"/></g><g style="mix-blend-mode:multiply"><path fill="#F5DAD0" d="M26.2529 10C19.2959 10 13.6592 15.6367 13.6592 22.5938C13.6592 29.5508 19.2959 35.1875 26.2529 35.1875C33.21 35.1875 38.8467 29.5508 38.8467 22.5938C38.8467 15.6367 33.21 10 26.2529 10Z"/></g></svg>