<svg width="40" height="32" viewBox="0 0 40 32" fill="none" xmlns="http://www.w3.org/2000/svg">
<g style="mix-blend-mode:multiply">
<path d="M10.3594 9.32422C9.85156 8.61328 8.83594 8.46094 8.125 8.96875C7.36328 9.52734 7.26172 10.543 7.76953 11.2539L9.69922 13.8438C9.95312 14.1484 9.90234 14.6055 9.64844 14.9102L8.98828 15.5703C8.63281 15.875 8.07422 15.875 7.76953 15.5195L3.25 10.0352V2.46875C3.25 1.60547 2.48828 0.84375 1.625 0.84375C0.710938 0.84375 0 1.60547 0 2.46875V13.5898C0 14.1484 0.152344 14.6562 0.507812 15.1133L5.78906 21.918C6.04297 22.2734 6.24609 22.6289 6.34766 23.0352C6.39844 23.3906 6.75391 23.5938 7.10938 23.5938H13.8125C14.2188 23.5938 14.625 23.2383 14.625 22.7812V17.0938C14.625 15.7227 14.168 14.3516 13.3047 13.2344L10.3594 9.32422ZM30.875 0.84375C29.9609 0.84375 29.25 1.60547 29.25 2.46875V10.0352L24.6797 15.5195C24.375 15.875 23.8164 15.875 23.4609 15.5703L22.8008 14.9102C22.5469 14.6055 22.4961 14.1484 22.75 13.8438L24.6797 11.2539C25.2383 10.543 25.0859 9.52734 24.375 8.96875C23.6133 8.46094 22.5977 8.61328 22.0898 9.32422L19.1445 13.2344C18.332 14.3516 17.875 15.7227 17.875 17.0938V22.7812C17.875 23.2383 18.2305 23.5938 18.6875 23.5938H25.3398C25.6953 23.5938 26.0508 23.3906 26.1523 23.0352C26.2539 22.6289 26.4062 22.2734 26.6602 21.918L31.9414 15.1133C32.2969 14.6562 32.5 14.1484 32.5 13.5898V2.46875C32.5 1.60547 31.7383 0.84375 30.875 0.84375Z" fill="#81B73B"/>
</g>
<g style="mix-blend-mode:multiply">
<path d="M27.2529 6C20.2959 6 14.6592 11.6367 14.6592 18.5938C14.6592 25.5508 20.2959 31.1875 27.2529 31.1875C34.21 31.1875 39.8467 25.5508 39.8467 18.5938C39.8467 11.6367 34.21 6 27.2529 6Z" fill="#F5DAD0"/>
</g>
</svg>
