<svg xmlns="http://www.w3.org/2000/svg" width="41" height="35" fill="none" viewBox="0 0 41 35"><g style="mix-blend-mode:multiply"><path fill="#81B73B" d="M14.2373 0.269632C6.46777 0.777444 0.62793 7.58213 0.62793 15.4024V22.1564C0.62793 22.6134 0.983398 22.9689 1.44043 22.9689H3.06543C3.47168 22.9689 3.87793 22.6134 3.87793 22.1564V14.8439C3.87793 8.08994 9.76855 2.70713 16.7256 3.57041C22.4639 4.33213 26.6279 9.46104 26.6279 15.2501V22.1564C26.6279 22.6134 26.9834 22.9689 27.4404 22.9689H29.0654C29.4717 22.9689 29.8779 22.6134 29.8779 22.1564V14.8439C29.8779 6.46494 22.7686 -0.288962 14.2373 0.269632ZM13.9326 5.19541C9.05762 5.80479 5.50293 10.2735 5.50293 15.1993V22.1564C5.50293 22.6134 5.8584 22.9689 6.31543 22.9689H7.94043C8.34668 22.9689 8.75293 22.6134 8.75293 22.1564V14.8439C8.75293 11.086 12.0029 8.03916 15.8623 8.39463C19.2646 8.7501 21.7529 11.7462 21.7529 15.1485V22.1564C21.7529 22.6134 22.1084 22.9689 22.5654 22.9689H24.1904C24.5967 22.9689 25.0029 22.6134 25.0029 22.1564V14.8439C25.0029 9.05479 19.874 4.43369 13.9326 5.19541ZM14.2373 10.0704C11.9521 10.5274 10.3779 12.711 10.3779 15.047V22.1564C10.3779 22.6134 10.7334 22.9689 11.1904 22.9689H12.8154C13.2217 22.9689 13.6279 22.6134 13.6279 22.1564V14.8439C13.6279 13.9806 14.3389 13.2189 15.2529 13.2189C16.1162 13.2189 16.8779 13.9806 16.8779 14.8439V22.1564C16.8779 22.6134 17.2334 22.9689 17.6904 22.9689H19.3154C19.7217 22.9689 20.1279 22.6134 20.1279 22.1564V14.8439C20.1279 11.8478 17.3857 9.46104 14.2373 10.0704Z"/></g><g style="mix-blend-mode:multiply"><path fill="#F5DAD0" d="M28.2529 9C21.2959 9 15.6592 14.6367 15.6592 21.5938C15.6592 28.5508 21.2959 34.1875 28.2529 34.1875C35.21 34.1875 40.8467 28.5508 40.8467 21.5938C40.8467 14.6367 35.21 9 28.2529 9Z"/></g></svg>