<svg xmlns="http://www.w3.org/2000/svg" width="42" height="35" fill="none" viewBox="0 0 42 35"><g style="mix-blend-mode:multiply"><path fill="#81B73B" d="M4.87793 9.96875C6.65527 9.96875 8.12793 8.54688 8.12793 6.71875C8.12793 4.94141 6.65527 3.46875 4.87793 3.46875C3.0498 3.46875 1.62793 4.94141 1.62793 6.71875C1.62793 8.54688 3.0498 9.96875 4.87793 9.96875ZM27.6279 9.96875C29.4053 9.96875 30.8779 8.54688 30.8779 6.71875C30.8779 4.94141 29.4053 3.46875 27.6279 3.46875C25.7998 3.46875 24.3779 4.94141 24.3779 6.71875C24.3779 8.54688 25.7998 9.96875 27.6279 9.96875ZM29.2529 11.5938H26.0029C25.0889 11.5938 24.2764 12 23.667 12.5586C25.749 13.6758 27.1709 15.707 27.5264 18.0938H30.8779C31.7412 18.0938 32.5029 17.3828 32.5029 16.4688V14.8438C32.5029 13.0664 31.0303 11.5938 29.2529 11.5938ZM16.2529 11.5938C19.3506 11.5938 21.9404 9.05469 21.9404 5.90625C21.9404 2.80859 19.3506 0.21875 16.2529 0.21875C13.1045 0.21875 10.5654 2.80859 10.5654 5.90625C10.5654 9.05469 13.1045 11.5938 16.2529 11.5938ZM20.1123 13.2188H19.7061C18.6396 13.7266 17.4717 14.0312 16.2529 14.0312C14.9834 14.0312 13.8154 13.7266 12.749 13.2188H12.3428C9.09277 13.2188 6.50293 15.8594 6.50293 19.1094V20.5312C6.50293 21.9023 7.56934 22.9688 8.94043 22.9688H23.5654C24.8857 22.9688 26.0029 21.9023 26.0029 20.5312V19.1094C26.0029 15.8594 23.3623 13.2188 20.1123 13.2188ZM8.78809 12.5586C8.17871 12 7.36621 11.5938 6.50293 11.5938H3.25293C1.4248 11.5938 0.00292969 13.0664 0.00292969 14.8438V16.4688C0.00292969 17.3828 0.713867 18.0938 1.62793 18.0938H4.92871C5.28418 15.707 6.70605 13.6758 8.78809 12.5586Z"/></g><g style="mix-blend-mode:multiply"><path fill="#F5DAD0" d="M29.2529 9C22.2959 9 16.6592 14.6367 16.6592 21.5938C16.6592 28.5508 22.2959 34.1875 29.2529 34.1875C36.21 34.1875 41.8467 28.5508 41.8467 21.5938C41.8467 14.6367 36.21 9 29.2529 9Z"/></g></svg>