<svg xmlns="http://www.w3.org/2000/svg" width="41" height="37" fill="none" viewBox="0 0 41 37"><g style="mix-blend-mode:multiply"><path fill="#1FC63A" d="M11.1904 0.59375C9.66699 0.59375 8.39746 1.66016 8.04199 3.08203C7.99121 3.08203 7.94043 3.03125 7.94043 3.03125C6.1123 3.03125 4.69043 4.50391 4.69043 6.28125C4.69043 6.53516 4.69043 6.78906 4.74121 6.99219C3.26855 7.60156 2.25293 9.07422 2.25293 10.75C2.25293 11.4102 2.40527 12.0195 2.65918 12.5273C1.44043 13.2383 0.62793 14.5586 0.62793 16.0312C0.62793 17.7578 1.64355 19.1797 3.11621 19.7891C3.06543 20.043 3.06543 20.2969 3.06543 20.5C3.06543 22.5312 4.69043 24.1562 6.72168 24.1562C6.9248 24.1562 7.12793 24.1562 7.33105 24.1055C7.78809 25.5781 9.15918 26.5938 10.7842 26.5938C12.7646 26.5938 14.4404 24.9688 14.4404 22.9375V3.84375C14.4404 2.06641 12.9678 0.59375 11.1904 0.59375ZM29.8779 16.0312C29.8779 14.5586 29.0146 13.2383 27.7959 12.5273C28.0498 12.0195 28.2529 11.4102 28.2529 10.75C28.2529 9.07422 27.1865 7.60156 25.7139 6.99219C25.7646 6.78906 25.8154 6.53516 25.8154 6.28125C25.8154 4.50391 24.3428 3.03125 22.5654 3.03125C22.5146 3.03125 22.4639 3.08203 22.4131 3.08203C22.0576 1.66016 20.7881 0.59375 19.3154 0.59375C17.4873 0.59375 16.0654 2.06641 16.0654 3.84375V22.9375C16.0654 24.9688 17.6904 26.5938 19.7217 26.5938C21.2959 26.5938 22.667 25.5781 23.1748 24.1055C23.3271 24.1562 23.5303 24.1562 23.7842 24.1562C25.7646 24.1562 27.4404 22.5312 27.4404 20.5C27.4404 20.2969 27.3896 20.043 27.3389 19.7891C28.8115 19.1797 29.8779 17.7578 29.8779 16.0312Z"/></g><g style="mix-blend-mode:multiply"><path fill="#F5DAD0" d="M28.2529 11C21.2959 11 15.6592 16.6367 15.6592 23.5938C15.6592 30.5508 21.2959 36.1875 28.2529 36.1875C35.21 36.1875 40.8467 30.5508 40.8467 23.5938C40.8467 16.6367 35.21 11 28.2529 11Z"/></g></svg>