<svg width="40" height="29" viewBox="0 0 40 29" fill="none" xmlns="http://www.w3.org/2000/svg">
<g style="mix-blend-mode:multiply">
<path d="M23.7138 1.79289C20.9208 -0.59383 16.8075 -0.136799 14.2177 2.50383L13.2529 3.51945L12.2372 2.50383C9.69817 -0.136799 5.53411 -0.59383 2.74114 1.79289C-0.458082 4.53508 -0.610425 9.41008 2.23332 12.3554L12.0849 22.5116C12.6943 23.1718 13.7607 23.1718 14.37 22.5116L24.2216 12.3554C27.0654 9.41008 26.913 4.53508 23.7138 1.79289Z" fill="#81B73B"/>
</g>
<g style="mix-blend-mode:multiply">
<path d="M36.7138 6.79289C33.9208 4.40617 29.8075 4.8632 27.2177 7.50383L26.2529 8.51945L25.2372 7.50383C22.6982 4.8632 18.5341 4.40617 15.7411 6.79289C12.5419 9.53508 12.3896 14.4101 15.2333 17.3554L25.0849 27.5116C25.6943 28.1718 26.7607 28.1718 27.37 27.5116L37.2216 17.3554C40.0654 14.4101 39.913 9.53508 36.7138 6.79289Z" fill="#F5DAD0"/>
</g>
</svg>
